<svg width="18" height="18" viewBox="0 0 18 18" fill="none" xmlns="http://www.w3.org/2000/svg">
<path d="M12.3899 4.23752L10.0649 2.43752C9.76489 2.13752 9.08989 1.98752 8.63989 1.98752H5.78989C4.88989 1.98752 3.91489 2.66252 3.68989 3.56252L1.88989 9.03752C1.51489 10.0875 2.18989 10.9875 3.31489 10.9875H6.31489C6.76489 10.9875 7.13989 11.3625 7.06489 11.8875L6.68989 14.2875C6.53989 14.9625 6.98989 15.7125 7.66489 15.9375C8.26489 16.1625 9.01489 15.8625 9.31489 15.4125L12.3899 10.8375" stroke="#F04242" stroke-width="1.5" stroke-miterlimit="10"/>
<path d="M16.2151 4.23745V11.5875C16.2151 12.6375 15.7651 13.0125 14.7151 13.0125H13.9651C12.9151 13.0125 12.4651 12.6375 12.4651 11.5875V4.23745C12.4651 3.18745 12.9151 2.81245 13.9651 2.81245H14.7151C15.7651 2.81245 16.2151 3.18745 16.2151 4.23745Z" stroke="#F04242" stroke-width="1.5" stroke-linecap="round" stroke-linejoin="round"/>
</svg>
