<svg width="18" height="18" viewBox="0 0 18 18" fill="none" xmlns="http://www.w3.org/2000/svg">
<path d="M5.61011 13.7625L7.93511 15.5625C8.23511 15.8625 8.91011 16.0125 9.36011 16.0125H12.2101C13.1101 16.0125 14.0851 15.3375 14.3101 14.4375L16.1101 8.96248C16.4851 7.91248 15.8101 7.01248 14.6851 7.01248H11.6851C11.2351 7.01248 10.8601 6.63748 10.9351 6.11248L11.3101 3.71248C11.4601 3.03748 11.0101 2.28748 10.3351 2.06248C9.73511 1.83748 8.98511 2.13748 8.68511 2.58748L5.61011 7.16248" stroke="#1676F3" stroke-width="1.5" stroke-miterlimit="10"/>
<path d="M1.78491 13.7625V6.41255C1.78491 5.36255 2.23491 4.98755 3.28491 4.98755H4.03491C5.08491 4.98755 5.53491 5.36255 5.53491 6.41255V13.7625C5.53491 14.8125 5.08491 15.1875 4.03491 15.1875H3.28491C2.23491 15.1875 1.78491 14.8125 1.78491 13.7625Z" stroke="#1676F3" stroke-width="1.5" stroke-linecap="round" stroke-linejoin="round"/>
</svg>
