<svg width="16" height="19" viewBox="0 0 16 19" fill="none" xmlns="http://www.w3.org/2000/svg">
<path fill-rule="evenodd" clip-rule="evenodd" d="M1.00069 10.8226V10.6401C1.02746 10.1002 1.2005 9.57708 1.50196 9.12467C2.00375 8.58122 2.34725 7.91525 2.49643 7.19665C2.49643 6.64125 2.49643 6.07792 2.54494 5.52252C2.79558 2.84868 5.4394 1 8.05088 1H8.11556C10.727 1 13.3709 2.84868 13.6296 5.52252C13.6781 6.07792 13.6296 6.64125 13.67 7.19665C13.8212 7.91692 14.1644 8.58495 14.6645 9.13261C14.9682 9.581 15.1415 10.1022 15.1658 10.6401V10.8147C15.1838 11.54 14.934 12.2474 14.4624 12.8062C13.8391 13.4596 12.9934 13.8661 12.0853 13.9487C9.4225 14.2343 6.73586 14.2343 4.07302 13.9487C3.16595 13.8625 2.32147 13.4566 1.69601 12.8062C1.23167 12.2469 0.985201 11.5438 1.00069 10.8226Z" stroke="#070D2C" stroke-width="1.5" stroke-linecap="round" stroke-linejoin="round"/>
<path d="M6.0459 16.7098C6.46196 17.2321 7.07295 17.57 7.74364 17.649C8.41434 17.7279 9.08943 17.5412 9.6195 17.1304C9.78254 17.0088 9.92924 16.8675 10.0561 16.7098" stroke="#070D2C" stroke-width="1.5" stroke-linecap="round" stroke-linejoin="round"/>
</svg>
