<svg width="13" height="15" viewBox="0 0 13 15" fill="none" xmlns="http://www.w3.org/2000/svg">
<path fill-rule="evenodd" clip-rule="evenodd" d="M11.4053 5.09725C11.4053 6.0392 11.6543 6.59439 12.2021 7.23419C12.6173 7.70554 12.75 8.3106 12.75 8.96702C12.75 9.62268 12.5346 10.2451 12.103 10.7504C11.538 11.3563 10.7412 11.743 9.92793 11.8102C8.74946 11.9107 7.57024 11.9953 6.37537 11.9953C5.17976 11.9953 4.00129 11.9447 2.82281 11.8102C2.00884 11.743 1.21201 11.3563 0.647749 10.7504C0.216165 10.2451 0 9.62268 0 8.96702C0 8.3106 0.133426 7.70554 0.547866 7.23419C1.11288 6.59439 1.34544 6.0392 1.34544 5.09725V4.77772C1.34544 3.51625 1.66 2.69139 2.30775 1.8839C3.2708 0.706272 4.81451 0 6.34183 0H6.40892C7.96903 0 9.56269 0.740264 10.5093 1.9685C11.1235 2.75937 11.4053 3.54949 11.4053 4.77772V5.09725ZM4.18018 13.5455C4.18018 13.1678 4.52678 12.9948 4.84731 12.9208C5.22224 12.8415 7.50688 12.8415 7.88181 12.9208C8.20233 12.9948 8.54894 13.1678 8.54894 13.5455C8.53031 13.9051 8.31936 14.2238 8.02791 14.4263C7.64999 14.7209 7.20648 14.9074 6.74285 14.9747C6.48643 15.0079 6.23449 15.0087 5.98702 14.9747C5.52263 14.9074 5.07912 14.7209 4.70195 14.4255C4.40976 14.2238 4.19881 13.9051 4.18018 13.5455Z" fill="#1676F3"/>
</svg>
